<svg width="15" height="15" viewBox="0 0 15 15" fill="none" xmlns="http://www.w3.org/2000/svg">
<path fill-rule="evenodd" clip-rule="evenodd" d="M0 14.1667C0 13.9457 0.0718343 13.7337 0.1997 13.5774C0.327566 13.4211 0.500989 13.3333 0.681818 13.3333H14.3182C14.499 13.3333 14.6724 13.4211 14.8003 13.5774C14.9282 13.7337 15 13.9457 15 14.1667C15 14.3877 14.9282 14.5996 14.8003 14.7559C14.6724 14.9122 14.499 15 14.3182 15H0.681818C0.500989 15 0.327566 14.9122 0.1997 14.7559C0.0718343 14.5996 0 14.3877 0 14.1667ZM0 7.5C0 7.27899 0.0718343 7.06702 0.1997 6.91074C0.327566 6.75446 0.500989 6.66667 0.681818 6.66667H14.3182C14.499 6.66667 14.6724 6.75446 14.8003 6.91074C14.9282 7.06702 15 7.27899 15 7.5C15 7.72101 14.9282 7.93298 14.8003 8.08926C14.6724 8.24554 14.499 8.33333 14.3182 8.33333H0.681818C0.500989 8.33333 0.327566 8.24554 0.1997 8.08926C0.0718343 7.93298 0 7.72101 0 7.5ZM0 0.833333C0 0.61232 0.0718343 0.400358 0.1997 0.244078C0.327566 0.0877975 0.500989 0 0.681818 0H14.3182C14.499 0 14.6724 0.0877975 14.8003 0.244078C14.9282 0.400358 15 0.61232 15 0.833333C15 1.05435 14.9282 1.26631 14.8003 1.42259C14.6724 1.57887 14.499 1.66667 14.3182 1.66667H0.681818C0.500989 1.66667 0.327566 1.57887 0.1997 1.42259C0.0718343 1.26631 0 1.05435 0 0.833333Z" fill="black"/>
</svg>
